<?xml version="1.0" encoding="UTF-8"?>
<svg id="Layer_1" data-name="Layer 1" xmlns="http://www.w3.org/2000/svg" viewBox="0 0 1328.48 529.25">
  <defs>
    <style>
      .cls-1 {
        fill: #e1b564;
      }

      .cls-2 {
        fill: #fff;
      }

      .cls-3 {
        fill: #eff8fd;
      }
    </style>
  </defs>
  <g>
    <path class="cls-1" d="M1328.46,6.24c0-1.73-.19-3.47-.34-6.24-4.35,8.02-7.75,15.12-11.84,21.78-17.8,28.92-42.85,50.59-70.6,69.36-39.22,26.5-82.04,46.11-125.26,64.94-47.07,20.5-95.08,38.88-140.83,62.35-27.98,14.35-55.04,30.09-76.43,53.79-12.76,14.14-21.86,30.41-22.37,49.7-.78,29.62-.26,59.27-.26,88.91,0,.55.31,1.09.53,1.79,2.76-1.01,4.02-3.36,5.69-5.13,8.62-9.17,19.4-13.44,31.69-14.85,12.34-1.42,24.7-1.35,37.04-.97,6.16.19,8.18-1.1,8.37-7.87,1.37-48.95,23.09-85.32,67.43-107.62,27.71-13.94,57.52-21,87.39-27.99,23.42-5.48,47.11-9.96,69.63-18.77,18.23-7.12,34.64-16.54,43.95-34.91.07-.15.72-.02,1.25-.02,0,84.07-.05,168.09.12,252.1.01,5.77-3.06,5.35-6.84,5.35-86.79-.03-173.58-.03-260.37.01-1.36,0-12.77-.06-24.23.84-8.67.95-14.95.95-23.01,2.82-24.13,5.61-45.54,14.05-58.81,36.43-6.64,11.21-11.94,23.05-16.8,35.1,2.86,2.13,6.18,1.23,9.29,1.23,127.2.05,254.38.04,381.57.05,3.19,0,6.4-.13,9.59.16,2.54-.18,5.14-.09,7.63-.57,44.49-8.48,76.8-47.24,76.82-92.53.06-143.08.02-286.16.01-429.25ZM1225.35,453.54c1.52-.1,2.89-.25,3.57,0-.74.01-2.06,0-3.57,0Z"/>
    <path class="cls-1" d="M1228.93,453.54c-.74.01-2.06,0-3.57,0,1.52-.1,2.89-.25,3.57,0Z"/>
    <path class="cls-2" d="M1172.48,308.28c-.05,27.32-.13,54.64-.22,81.95-1.54,2.29-3.89,1.26-5.86,1.26-41.15.06-82.29-.05-123.44.16-5.42.03-6.75-1.51-6.57-6.81,1.09-31.99,19.82-57.05,52.19-68.78,26.62-9.64,54.29-12.2,82.38-11.5,1.96.65,1.51,2.34,1.51,3.72Z"/>
  </g>
  <g>
    <path class="cls-3" d="M101.33,375.17h19.7v114.29h-20.14v-64.54l-29.28,64.22-.11.33h-21.99l-.11-.33-29.28-64.22v64.54H0v-114.29h20.14v.98l40.38,88.71,40.38-88.71v-.98h.44Z"/>
    <path class="cls-3" d="M216.93,391.93v-16.76h20.25v78.59c0,9.87-3.5,18.29-10.5,25.25-7,6.97-15.44,10.45-25.31,10.45h-29.39c-9.87,0-18.29-3.48-25.25-10.45-6.97-6.97-10.45-15.38-10.45-25.25v-78.59h20.14v79.35c0,4.06,1.45,7.55,4.35,10.45,2.9,2.9,6.38,4.35,10.45,4.35h30.91c4.14,0,7.64-1.45,10.5-4.35,2.87-2.9,4.3-6.38,4.3-10.45v-62.59Z"/>
    <path class="cls-3" d="M339.59,438.73c4.21,3.19,7.4,6.57,9.58,10.12,2.47,4.14,3.59,8.38,3.37,12.73-.36,6.1-3.21,11.41-8.54,15.95-5.33,4.54-12.61,7.86-21.82,9.96-5.95,1.31-12.01,1.96-18.18,1.96s-12.63-.72-18.72-2.18c-6.68-1.67-12.55-4.14-17.63-7.4-5.95-3.84-10.56-8.63-13.82-14.37l19.05-10.34c3.41,5.37,8.54,9,15.4,10.88,6.86,1.89,13.59,2.58,20.19,2.07,6.38-.51,11.94-1.78,16.65-3.81,3.55-1.81,5.44-3.12,5.66-3.92-.07-.29-.53-.94-1.36-1.96-.83-1.02-2.41-2.36-4.73-4.03-4.72-2.76-14.46-7.36-29.22-13.82-14.77-6.46-24.76-11.36-29.99-14.69-4.21-3.27-7.4-6.64-9.58-10.12-2.54-4.14-3.7-8.38-3.48-12.73.44-6.1,3.3-11.41,8.6-15.95,5.3-4.53,12.59-7.85,21.88-9.96,12.48-2.68,24.74-2.61,36.79.22,6.68,1.6,12.59,4.06,17.74,7.4,5.95,3.85,10.56,8.64,13.82,14.37l-19.05,10.34c-3.48-5.44-8.65-9.09-15.51-10.94-6.86-1.85-13.55-2.52-20.08-2.01-6.46.51-12.01,1.78-16.65,3.81-3.56,1.81-5.44,3.12-5.66,3.92.07.29.53.94,1.36,1.96.83,1.02,2.41,2.36,4.73,4.03,4.64,2.69,14.35,7.28,29.12,13.77,14.77,6.49,24.8,11.41,30.1,14.75Z"/>
    <path class="cls-3" d="M437.44,375.17l5.88,20.14,27.1,94.15h-21.01l-6.75-23.51h-52.46l-6.75,23.51h-21.01l27.1-94.15,5.88-20.14h42.01ZM396.08,445.7h40.71l-14.48-50.39h-11.76l-14.48,50.39Z"/>
    <path class="cls-3" d="M573.06,468.99v-93.82h20.25v114.29h-31.56l-55.95-93.93v93.93h-20.14v-114.29h31.46l55.95,93.82Z"/>
    <path class="cls-3" d="M608.54,489.45v-114.29h94.15v20.14h-74.01v26.88h57.25v20.14h-57.25v26.99h74.01v20.14h-94.15Z"/>
    <path class="cls-3" d="M776.16,375.17c8.2,0,15.74,1.81,22.64,5.44,6.89,3.63,12.63,8.53,17.2,14.69,6.38,8.56,9.58,18.29,9.58,29.17v15.67c0,10.88-3.19,20.61-9.58,29.17-4.57,6.17-10.3,11.07-17.2,14.69-6.89,3.63-14.44,5.44-22.64,5.44h-58.23v-114.29h58.23ZM805.33,439.28v-14.04c0-8.27-2.92-15.33-8.76-21.17-5.84-5.84-12.9-8.76-21.17-8.76h-37.33v74.01h37.33c8.27,0,15.33-2.94,21.17-8.82,5.84-5.88,8.76-12.95,8.76-21.22Z"/>
  </g>
  <g>
    <path class="cls-3" d="M300.75,171.46c-8.09.09-12.19,4.4-12.28,12.95,0,8.54,4.19,12.81,12.55,12.81s12.9-4.31,12.81-12.95c-.09-8.63-4.46-12.9-13.08-12.81Z"/>
    <path class="cls-3" d="M312.1,216.03v52.85c0,21.97-11.08,32.96-33.23,32.96H7.6v-19.62h50.04v-33.36c0-4.45-1.13-7.88-3.4-10.28-2.27-2.4-5.59-3.6-9.95-3.6h-17.61v-19.08c18.06-.18,27.85-.18,29.36,0,11.56,1.07,19.35,7.56,23.35,19.48,1.69,5.25,2.54,11.12,2.54,17.61v29.23h194.94c3.38,0,6.05-.95,8.01-2.87,1.96-1.91,2.93-4.61,2.93-8.07v-55.25h24.29Z"/>
    <path class="cls-3" d="M813.3,228.97c-8.19-8.72-18.06-13.08-29.63-13.08s-21.44,4.36-29.62,13.08c-8.19,8.72-12.28,19.22-12.28,31.5,0,4.54.58,8.81,1.74,12.81-1.07,4.63-4.05,7.48-8.95,8.55-3.2.26-7.6.4-13.21.4h-18.68l.53-1.74c1.07-3.56,1.6-7.21,1.6-10.94.09-6.85.13-24.87.13-54.05h-24.29v52.45c0,2.22-.27,4.41-.8,6.54-.9,4.18-3.43,6.58-7.61,7.2-1.96.36-3.65.54-5.07.54h-12.68v-59.92h-24.15l-.13,59.92h-23.49v-59.92h-24.15v59.92h-233.91v-115.3h-24.15v134.92h406.85c8.28,0,15.04-2.85,20.29-8.55l2.13-1.47-.8-1.07c8.27,9.52,18.5,14.28,30.69,14.28s21.44-4.36,29.63-13.08c8.19-8.73,12.28-19.22,12.28-31.49s-4.09-22.78-12.28-31.5ZM783.67,286.22c-10.67,0-16.01-8.59-16.01-25.75s5.34-25.76,16.01-25.76,16.02,8.59,16.02,25.76-5.34,25.75-16.02,25.75Z"/>
  </g>
  <g>
    <path class="cls-1" d="M20.49,509.93v-13.25h5.74v22.37c0,2.81-.99,5.21-2.98,7.2-1.99,1.99-4.39,2.98-7.2,2.98h-5.34c-2.59,0-4.79-.92-6.62-2.75-1.83-1.83-2.75-4.04-2.75-6.62v-4.25c0-2.59.92-4.79,2.75-6.61,1.83-1.82,4.04-2.73,6.62-2.73h2.33c1.51,0,2.91.33,4.2.99,1.29.66,2.37,1.55,3.24,2.67ZM20.49,519.26v-3.07c0-1.16-.41-2.15-1.24-2.96-.83-.82-1.82-1.23-2.98-1.23h-4.96c-1.16,0-2.15.41-2.98,1.23-.83.82-1.24,1.8-1.24,2.96v3.07c0,1.16.41,2.15,1.24,2.98.83.83,1.82,1.24,2.98,1.24h4.96c1.16,0,2.15-.41,2.98-1.24.83-.83,1.24-1.82,1.24-2.98Z"/>
    <path class="cls-1" d="M53.37,506.26c2.81,0,5.21.99,7.2,2.98,1.99,1.99,2.98,4.39,2.98,7.2v2.64c0,2.81-.99,5.21-2.98,7.2-1.99,1.99-4.39,2.98-7.2,2.98h-4.56c-2.81,0-5.21-.99-7.2-2.98s-2.98-4.38-2.98-7.2v-2.64c0-2.81.99-5.21,2.98-7.2s4.38-2.98,7.2-2.98h4.56ZM57.81,519.29v-3.07c0-1.16-.41-2.15-1.24-2.98-.83-.83-1.82-1.24-2.98-1.24h-5c-1.16,0-2.15.41-2.98,1.24-.83.83-1.24,1.82-1.24,2.98v3.07c0,1.16.41,2.15,1.24,2.98.83.83,1.82,1.24,2.98,1.24h5c1.16,0,2.15-.41,2.98-1.24.83-.83,1.24-1.82,1.24-2.98Z"/>
    <path class="cls-1" d="M115.98,513.9c.1.56.16,1.13.16,1.71v13.62h-5.74v-13.03c0-1.16-.41-2.15-1.23-2.96-.82-.82-1.8-1.23-2.96-1.23h-3.07c-1.16,0-2.15.41-2.98,1.23-.83.82-1.24,1.8-1.24,2.96v13.03h-5.74v-13.03c0-1.16-.41-2.15-1.23-2.96-.82-.82-1.81-1.23-2.99-1.23h-3.04c-1.16,0-2.15.41-2.98,1.23-.83.82-1.24,1.8-1.24,2.96v13.03h-5.74v-22.96h5.74v3.66c.87-1.12,1.95-2.01,3.24-2.67,1.29-.66,2.69-.99,4.2-.99h.43c1.28,0,2.48.24,3.6.71,2.09.91,3.66,2.36,4.72,4.34.29-.6.63-1.16,1.02-1.68.83-1.03,1.85-1.86,3.06-2.47,1.21-.61,2.53-.91,3.96-.91h.87c2.3,0,4.29.72,5.99,2.16,1.7,1.44,2.76,3.26,3.2,5.48Z"/>
    <path class="cls-1" d="M150.79,509.62c1.34,1.47,2.18,3.22,2.51,5.24.08.52.12,1.03.12,1.55v2.64c0,.21-.01.4-.03.59h-19.08c.12,1.12.58,2.04,1.37,2.76.79.72,1.73,1.09,2.82,1.09h4.96c1.51-.04,2.69-.68,3.54-1.92h6.11c-.43,1.65-1.21,3.09-2.33,4.31-2.05,2.17-4.56,3.29-7.54,3.35h-4.53c-2.71,0-5.03-.91-6.95-2.73-1.92-1.82-2.99-4.11-3.2-6.86-.02-.19-.03-.38-.03-.59v-2.64c0-.52.04-1.03.12-1.55.43-2.48,1.58-4.53,3.44-6.16,1.86-1.62,4.06-2.44,6.61-2.44h4.53c2.98.04,5.49,1.16,7.54,3.35ZM134.5,514.86h12.97c-.17-.45-.39-.87-.68-1.24-.87-1.06-1.98-1.59-3.32-1.61h-4.96c-1.86,0-3.2.95-4,2.85Z"/>
    <path class="cls-1" d="M184.92,518.49c.93.66,1.64,1.37,2.14,2.11.6.89.87,1.81.81,2.76-.29,2.71-2.56,4.54-6.79,5.49-1.26.27-2.55.4-3.88.4-1.43,0-2.77-.14-4.03-.43-1.47-.33-2.76-.83-3.88-1.49-1.32-.79-2.35-1.77-3.07-2.95l-.34-.53,5.09-2.54.34.5c.33.52.76.91,1.29,1.19.53.28,1.04.48,1.54.6,1.2.33,2.51.46,3.94.37,1.24-.08,2.31-.31,3.2-.68.25-.1.44-.2.59-.28-.17-.15-.42-.33-.78-.56-.83-.45-2.53-1.2-5.12-2.23-3.5-1.41-5.88-2.48-7.17-3.23-.93-.66-1.64-1.35-2.14-2.08-.58-.91-.85-1.84-.81-2.79.29-2.69,2.56-4.52,6.83-5.49,2.69-.54,5.33-.53,7.91.03,1.45.33,2.74.84,3.88,1.52,1.3.79,2.33,1.77,3.07,2.95l.31.53-5.09,2.54-.31-.53c-.33-.5-.76-.89-1.29-1.18-.53-.29-1.04-.5-1.54-.62-1.2-.33-2.51-.44-3.94-.34-1.24.08-2.32.3-3.23.65-.25.1-.43.2-.56.28.14.15.39.34.74.59.85.43,2.55,1.18,5.12,2.23,3.49,1.39,5.88,2.45,7.17,3.19Z"/>
    <path class="cls-1" d="M206.04,519.29c0,1.16.41,2.15,1.24,2.98.83.83,1.82,1.24,2.98,1.24h4.41v5.74h-4.19c-2.81,0-5.21-.99-7.2-2.98-1.99-1.99-2.98-4.38-2.98-7.2v-22.4h5.74v10.58c1.37-.66,2.84-.99,4.44-.99h3.26v5.74h-3.47c-1.16,0-2.15.41-2.98,1.24s-1.24,1.82-1.24,2.98v3.07Z"/>
    <path class="cls-1" d="M230.43,496.68c.93,0,1.72.33,2.37.98.65.65.98,1.44.98,2.37s-.33,1.72-.98,2.37-1.44.98-2.37.98-1.72-.33-2.37-.98c-.65-.65-.98-1.44-.98-2.37s.33-1.72.98-2.37c.65-.65,1.44-.98,2.37-.98ZM227.54,529.22v-22.96h5.74v22.96h-5.74Z"/>
    <path class="cls-1" d="M256.15,512c-1.16,0-2.15.41-2.98,1.23-.83.82-1.24,1.8-1.24,2.96v3.07c0,1.16.41,2.15,1.24,2.98.83.83,1.82,1.24,2.98,1.24h4.96c1.34,0,2.45-.54,3.32-1.61l4,4c-.93,1.03-2.05,1.85-3.35,2.45s-2.7.9-4.19.9h-4.53c-2.81,0-5.21-.99-7.2-2.98-1.99-1.99-2.98-4.39-2.98-7.2v-2.64c0-2.79.99-5.18,2.98-7.17,1.99-1.99,4.38-2.98,7.2-2.98h4.53c1.49,0,2.89.29,4.19.88,1.3.59,2.42,1.41,3.35,2.47l-4,4c-.87-1.07-1.98-1.61-3.32-1.61h-4.96Z"/>
    <path class="cls-1" d="M326.98,523.51l5.15-17.25h5.99l-6.86,22.99h-9.68l-1.68-5.62-1.68,5.62h-9.68l-6.86-22.99h5.99l5.15,17.25h1.12l2.95-9.96,2.2-7.29h1.61l2.2,7.29,2.95,9.96h1.12Z"/>
    <path class="cls-1" d="M363.71,506.26c2.81,0,5.21.99,7.2,2.98,1.99,1.99,2.98,4.39,2.98,7.2v2.64c0,2.81-.99,5.21-2.98,7.2-1.99,1.99-4.38,2.98-7.2,2.98h-4.56c-2.81,0-5.21-.99-7.2-2.98-1.99-1.99-2.98-4.38-2.98-7.2v-2.64c0-2.81.99-5.21,2.98-7.2,1.99-1.99,4.38-2.98,7.2-2.98h4.56ZM368.15,519.29v-3.07c0-1.16-.41-2.15-1.24-2.98-.83-.83-1.82-1.24-2.98-1.24h-5c-1.16,0-2.15.41-2.98,1.24-.83.83-1.24,1.82-1.24,2.98v3.07c0,1.16.41,2.15,1.24,2.98.83.83,1.82,1.24,2.98,1.24h5c1.16,0,2.15-.41,2.98-1.24s1.24-1.82,1.24-2.98Z"/>
    <path class="cls-1" d="M386.3,516.44c0-2.81.99-5.21,2.98-7.2,1.99-1.99,4.38-2.98,7.2-2.98h7.07v5.74h-7.29c-1.16,0-2.15.41-2.98,1.24-.83.83-1.24,1.82-1.24,2.98v13.03h-5.74v-12.81Z"/>
    <path class="cls-1" d="M429.85,512l5.24,8.41,5.49,8.81h-6.76l-10.27-16.51c-1.24.87-1.86,2.03-1.86,3.48v13.03h-5.74v-32.54h5.74v13.25s.04-.04.06-.06c1.24-1.57,2.83-2.65,4.78-3.23.83-.25,1.7-.37,2.61-.37h6.92v5.74h-6.2Z"/>
    <path class="cls-1" d="M475.24,509.62c1.34,1.47,2.18,3.22,2.51,5.24.08.52.12,1.03.12,1.55v2.64c0,.21-.01.4-.03.59h-19.08c.12,1.12.58,2.04,1.37,2.76.79.72,1.73,1.09,2.82,1.09h4.96c1.51-.04,2.69-.68,3.54-1.92h6.11c-.43,1.65-1.21,3.09-2.33,4.31-2.05,2.17-4.56,3.29-7.54,3.35h-4.53c-2.71,0-5.03-.91-6.95-2.73-1.92-1.82-2.99-4.11-3.2-6.86-.02-.19-.03-.38-.03-.59v-2.64c0-.52.04-1.03.12-1.55.43-2.48,1.58-4.53,3.44-6.16,1.86-1.62,4.06-2.44,6.61-2.44h4.53c2.98.04,5.49,1.16,7.54,3.35ZM458.96,514.86h12.97c-.17-.45-.39-.87-.68-1.24-.87-1.06-1.98-1.59-3.32-1.61h-4.96c-1.86,0-3.19.95-4,2.85Z"/>
    <path class="cls-1" d="M490.29,516.44c0-2.81.99-5.21,2.98-7.2s4.39-2.98,7.2-2.98h7.07v5.74h-7.29c-1.16,0-2.15.41-2.98,1.24-.83.83-1.24,1.82-1.24,2.98v13.03h-5.74v-12.81Z"/>
    <path class="cls-1" d="M539.03,518.49c.93.66,1.64,1.37,2.14,2.11.6.89.87,1.81.81,2.76-.29,2.71-2.55,4.54-6.79,5.49-1.26.27-2.55.4-3.88.4-1.43,0-2.77-.14-4.03-.43-1.47-.33-2.76-.83-3.88-1.49-1.32-.79-2.35-1.77-3.07-2.95l-.34-.53,5.09-2.54.34.5c.33.52.76.91,1.29,1.19s1.04.48,1.54.6c1.2.33,2.51.46,3.94.37,1.24-.08,2.31-.31,3.2-.68.25-.1.44-.2.59-.28-.17-.15-.42-.33-.78-.56-.83-.45-2.53-1.2-5.12-2.23-3.5-1.41-5.88-2.48-7.17-3.23-.93-.66-1.64-1.35-2.14-2.08-.58-.91-.85-1.84-.81-2.79.29-2.69,2.56-4.52,6.83-5.49,2.69-.54,5.33-.53,7.91.03,1.45.33,2.74.84,3.88,1.52,1.3.79,2.33,1.77,3.07,2.95l.31.53-5.09,2.54-.31-.53c-.33-.5-.76-.89-1.29-1.18-.53-.29-1.04-.5-1.54-.62-1.2-.33-2.51-.44-3.94-.34-1.24.08-2.32.3-3.23.65-.25.1-.43.2-.56.28.14.15.39.34.74.59.85.43,2.55,1.18,5.12,2.23,3.5,1.39,5.88,2.45,7.17,3.19Z"/>
    <path class="cls-1" d="M594.35,518.49c.93.66,1.64,1.37,2.14,2.11.6.89.87,1.81.81,2.76-.29,2.71-2.55,4.54-6.79,5.49-1.26.27-2.55.4-3.88.4-1.43,0-2.77-.14-4.03-.43-1.47-.33-2.76-.83-3.88-1.49-1.32-.79-2.35-1.77-3.07-2.95l-.34-.53,5.09-2.54.34.5c.33.52.76.91,1.29,1.19s1.04.48,1.54.6c1.2.33,2.51.46,3.94.37,1.24-.08,2.31-.31,3.2-.68.25-.1.44-.2.59-.28-.17-.15-.42-.33-.78-.56-.83-.45-2.53-1.2-5.12-2.23-3.5-1.41-5.88-2.48-7.17-3.23-.93-.66-1.64-1.35-2.14-2.08-.58-.91-.85-1.84-.81-2.79.29-2.69,2.56-4.52,6.83-5.49,2.69-.54,5.33-.53,7.91.03,1.45.33,2.74.84,3.88,1.52,1.3.79,2.33,1.77,3.07,2.95l.31.53-5.09,2.54-.31-.53c-.33-.5-.76-.89-1.29-1.18-.53-.29-1.04-.5-1.54-.62-1.2-.33-2.51-.44-3.94-.34-1.24.08-2.32.3-3.23.65-.25.1-.43.2-.56.28.14.15.39.34.74.59.85.43,2.55,1.18,5.12,2.23,3.5,1.39,5.88,2.45,7.17,3.19Z"/>
    <path class="cls-1" d="M631.98,509.62c1.34,1.47,2.18,3.22,2.51,5.24.08.52.12,1.03.12,1.55v2.64c0,.21-.01.4-.03.59h-19.08c.12,1.12.58,2.04,1.36,2.76.79.72,1.73,1.09,2.82,1.09h4.96c1.51-.04,2.69-.68,3.54-1.92h6.11c-.43,1.65-1.21,3.09-2.33,4.31-2.05,2.17-4.56,3.29-7.54,3.35h-4.53c-2.71,0-5.03-.91-6.95-2.73-1.92-1.82-2.99-4.11-3.19-6.86-.02-.19-.03-.38-.03-.59v-2.64c0-.52.04-1.03.12-1.55.43-2.48,1.58-4.53,3.44-6.16,1.86-1.62,4.06-2.44,6.61-2.44h4.53c2.98.04,5.49,1.16,7.54,3.35ZM615.69,514.86h12.97c-.17-.45-.39-.87-.68-1.24-.87-1.06-1.97-1.59-3.32-1.61h-4.96c-1.86,0-3.19.95-4,2.85Z"/>
    <path class="cls-1" d="M647.02,516.44c0-2.81.99-5.21,2.98-7.2,1.99-1.99,4.39-2.98,7.2-2.98h7.07v5.74h-7.29c-1.16,0-2.15.41-2.98,1.24-.83.83-1.24,1.82-1.24,2.98v13.03h-5.74v-12.81Z"/>
    <path class="cls-1" d="M688.94,523.51l5.15-17.25h5.99l-6.86,22.99h-9.68l-6.86-22.99h5.99l5.15,17.25h1.12Z"/>
    <path class="cls-1" d="M715.84,496.68c.93,0,1.72.33,2.37.98s.98,1.44.98,2.37-.33,1.72-.98,2.37c-.65.65-1.44.98-2.37.98s-1.72-.33-2.37-.98c-.65-.65-.98-1.44-.98-2.37s.33-1.72.98-2.37,1.44-.98,2.37-.98ZM712.95,529.22v-22.96h5.74v22.96h-5.74Z"/>
    <path class="cls-1" d="M741.56,512c-1.16,0-2.15.41-2.98,1.23-.83.82-1.24,1.8-1.24,2.96v3.07c0,1.16.41,2.15,1.24,2.98.83.83,1.82,1.24,2.98,1.24h4.96c1.34,0,2.45-.54,3.32-1.61l4,4c-.93,1.03-2.05,1.85-3.35,2.45-1.3.6-2.7.9-4.19.9h-4.53c-2.81,0-5.21-.99-7.2-2.98s-2.98-4.39-2.98-7.2v-2.64c0-2.79.99-5.18,2.98-7.17s4.39-2.98,7.2-2.98h4.53c1.49,0,2.89.29,4.19.88s2.42,1.41,3.35,2.47l-4,4c-.87-1.07-1.97-1.61-3.32-1.61h-4.96Z"/>
    <path class="cls-1" d="M788.5,509.62c1.34,1.47,2.18,3.22,2.51,5.24.08.52.12,1.03.12,1.55v2.64c0,.21-.01.4-.03.59h-19.08c.12,1.12.58,2.04,1.36,2.76s1.73,1.09,2.82,1.09h4.96c1.51-.04,2.69-.68,3.54-1.92h6.11c-.43,1.65-1.21,3.09-2.33,4.31-2.05,2.17-4.56,3.29-7.54,3.35h-4.53c-2.71,0-5.03-.91-6.95-2.73-1.92-1.82-2.99-4.11-3.19-6.86-.02-.19-.03-.38-.03-.59v-2.64c0-.52.04-1.03.12-1.55.43-2.48,1.58-4.53,3.44-6.16,1.86-1.62,4.06-2.44,6.61-2.44h4.53c2.98.04,5.49,1.16,7.54,3.35ZM772.21,514.86h12.97c-.17-.45-.39-.87-.68-1.24-.87-1.06-1.97-1.59-3.32-1.61h-4.96c-1.86,0-3.19.95-4,2.85Z"/>
    <path class="cls-1" d="M822.62,518.49c.93.66,1.64,1.37,2.14,2.11.6.89.87,1.81.81,2.76-.29,2.71-2.55,4.54-6.79,5.49-1.26.27-2.55.4-3.88.4-1.43,0-2.77-.14-4.03-.43-1.47-.33-2.76-.83-3.88-1.49-1.32-.79-2.35-1.77-3.07-2.95l-.34-.53,5.09-2.54.34.5c.33.52.76.91,1.29,1.19s1.04.48,1.54.6c1.2.33,2.51.46,3.94.37,1.24-.08,2.31-.31,3.2-.68.25-.1.44-.2.59-.28-.17-.15-.42-.33-.78-.56-.83-.45-2.53-1.2-5.12-2.23-3.5-1.41-5.88-2.48-7.17-3.23-.93-.66-1.64-1.35-2.14-2.08-.58-.91-.85-1.84-.81-2.79.29-2.69,2.56-4.52,6.83-5.49,2.69-.54,5.33-.53,7.91.03,1.45.33,2.74.84,3.88,1.52,1.3.79,2.33,1.77,3.07,2.95l.31.53-5.09,2.54-.31-.53c-.33-.5-.76-.89-1.29-1.18-.53-.29-1.04-.5-1.54-.62-1.2-.33-2.51-.44-3.94-.34-1.24.08-2.32.3-3.23.65-.25.1-.43.2-.56.28.14.15.39.34.74.59.85.43,2.55,1.18,5.12,2.23,3.5,1.39,5.88,2.45,7.17,3.19Z"/>
  </g>
  <g>
    <path class="cls-1" d="M22.39,336.7v23.06h-11.19C3.76,359.76.02,355.97,0,348.39c-.02-3.26,1.08-6.05,3.32-8.38,2.21-2.28,4.84-3.41,7.88-3.39l11.19.07ZM8.31,324.94c2.3-.02,3.47,1.12,3.49,3.42.02,2.31-1.12,3.46-3.42,3.46s-3.35-1.14-3.35-3.42c.02-2.28,1.12-3.43,3.28-3.46ZM13.55,342.05l-2.35.04c-3.76.07-5.63,2.13-5.63,6.17v.28c0,3.99,1.85,5.99,5.56,5.99h5.7l-.04-12.48h-3.24ZM17.15,324.94c2.3-.02,3.47,1.12,3.49,3.42.02,2.31-1.12,3.46-3.42,3.46s-3.35-1.14-3.35-3.42c.02-2.28,1.12-3.43,3.28-3.46Z"/>
    <path class="cls-1" d="M38.18,336.81c3.09.29,5.17,2.02,6.24,5.2.45,1.4.68,2.97.68,4.7v7.81h6.06v5.24h-25.91v-5.24h13.37v-8.91c0-1.19-.3-2.1-.91-2.75-.61-.64-1.49-.96-2.66-.96h-4.7v-5.1c4.82-.05,7.44-.05,7.84,0Z"/>
    <path class="cls-1" d="M75,336.73v5.35h-5.28l-2.35.04c-3.76.07-5.63,2.13-5.63,6.17v.29c0,3.97,1.85,5.95,5.56,5.95h11.26v5.24h-28.84v-5.24h8.13c-1.12-1.83-1.68-3.86-1.68-6.1,0-3.3,1.1-6.1,3.32-8.38,2.16-2.23,4.79-3.35,7.88-3.35l7.63.04Z"/>
    <path class="cls-1" d="M87.87,354.52h6.49v5.24h-12.94v-36.04h6.45v30.8Z"/>
    <path class="cls-1" d="M103.12,359.76h-10.19v-5.24h10.19v5.24Z"/>
    <path class="cls-1" d="M111.89,359.76h-10.19v-5.24h10.19v5.24Z"/>
    <path class="cls-1" d="M120.66,359.76h-10.19v-5.24h10.19v5.24Z"/>
    <path class="cls-1" d="M129.43,359.76h-10.19v-5.24h10.19v5.24Z"/>
    <path class="cls-1" d="M138.19,359.76h-10.19v-5.24h10.19v5.24Z"/>
    <path class="cls-1" d="M146.96,359.76h-10.19v-5.24h10.19v5.24Z"/>
    <path class="cls-1" d="M155.73,359.76h-10.19v-5.24h10.19v5.24Z"/>
    <path class="cls-1" d="M164.5,359.76h-10.19v-5.24h10.19v5.24Z"/>
    <path class="cls-1" d="M173.27,359.76h-10.19v-5.24h10.19v5.24Z"/>
    <path class="cls-1" d="M182.03,359.76h-10.19v-5.24h10.19v5.24Z"/>
    <path class="cls-1" d="M190.8,359.76h-10.19v-5.24h10.19v5.24Z"/>
    <path class="cls-1" d="M199.57,359.76h-10.19v-5.24h10.19v5.24Z"/>
    <path class="cls-1" d="M229.15,336.7h6.49c0,7.79-.01,12.61-.03,14.44,0,1-.14,1.97-.43,2.92l-.14.46h7.13v5.24h-44.02v-5.24h4.81v-16.01h6.45v16.01h6.27l.04-16.01h6.45v16.01h3.39c.38,0,.83-.05,1.35-.14,1.12-.17,1.79-.81,2.03-1.93.14-.57.21-1.15.21-1.75v-14.01Z"/>
    <path class="cls-1" d="M249.47,340.3c2.19-2.33,4.82-3.49,7.91-3.49s5.73,1.16,7.91,3.49,3.28,5.13,3.28,8.41c0,1.16-.17,2.35-.5,3.56.31,1.19,1.09,1.9,2.35,2.14.88.07,2.06.11,3.53.11v5.24h-2.67c-2.21,0-4.02-.76-5.42-2.28l-.54-.39c-2.19,2.35-4.84,3.53-7.95,3.53s-5.99-1.27-8.2-3.81l.21.29-.57.39c-1.4,1.52-3.21,2.28-5.42,2.28h-2.67v-5.24c2.28,0,3.46-.04,3.53-.11,1.31-.28,2.1-1.05,2.39-2.28-.31-1.07-.46-2.21-.46-3.42,0-3.28,1.09-6.08,3.28-8.41ZM261.66,348.71c0-4.59-1.43-6.88-4.28-6.88s-4.28,2.29-4.28,6.88,1.43,6.88,4.28,6.88,4.28-2.29,4.28-6.88Z"/>
    <path class="cls-1" d="M285.54,323.72v27.23c0,5.87-2.96,8.8-8.88,8.8h-4.14v-5.24h3.6c.9,0,1.62-.26,2.14-.77.52-.51.79-1.23.79-2.16v-27.88h6.49Z"/>
    <path class="cls-1" d="M294.77,359.76h-6.38v-36.14h6.38v36.14Z"/>
    <path class="cls-1" d="M328.07,336.7v17.82h6.42v5.24h-17.61c-7.44,0-11.17-3.79-11.19-11.37-.02-3.26,1.08-6.05,3.32-8.38,2.21-2.28,4.84-3.41,7.88-3.39l11.19.07ZM313.99,324.94c2.3-.02,3.47,1.12,3.49,3.42.02,2.31-1.12,3.46-3.42,3.46s-3.35-1.14-3.35-3.42c.02-2.28,1.12-3.43,3.28-3.46ZM319.23,342.05l-2.35.04c-3.76.07-5.63,2.13-5.63,6.17v.28c0,3.99,1.85,5.99,5.56,5.99h5.7l-.04-12.48h-3.24ZM322.83,324.94c2.3-.02,3.47,1.12,3.49,3.42.02,2.31-1.12,3.46-3.42,3.46s-3.35-1.14-3.35-3.42c.02-2.28,1.12-3.43,3.28-3.46Z"/>
    <path class="cls-1" d="M345.35,323.72v27.23c0,5.87-2.96,8.8-8.88,8.8h-4.14v-5.24h3.6c.9,0,1.62-.26,2.14-.77.52-.51.79-1.23.79-2.16v-27.88h6.49Z"/>
    <path class="cls-1" d="M354.66,354.52h6.49v5.24h-12.94v-36.04h6.45v30.8Z"/>
    <path class="cls-1" d="M369.91,359.76h-10.19v-5.24h10.19v5.24Z"/>
    <path class="cls-1" d="M378.68,359.76h-10.19v-5.24h10.19v5.24Z"/>
    <path class="cls-1" d="M387.45,359.76h-10.19v-5.24h10.19v5.24Z"/>
    <path class="cls-1" d="M396.22,359.76h-10.19v-5.24h10.19v5.24Z"/>
    <path class="cls-1" d="M404.98,359.76h-10.19v-5.24h10.19v5.24Z"/>
    <path class="cls-1" d="M413.75,359.76h-10.19v-5.24h10.19v5.24Z"/>
    <path class="cls-1" d="M422.52,359.76h-10.19v-5.24h10.19v5.24Z"/>
    <path class="cls-1" d="M431.29,359.76h-10.19v-5.24h10.19v5.24Z"/>
    <path class="cls-1" d="M440.06,359.76h-10.19v-5.24h10.19v5.24Z"/>
    <path class="cls-1" d="M448.82,359.76h-10.19v-5.24h10.19v5.24Z"/>
    <path class="cls-1" d="M457.59,359.76h-10.19v-5.24h10.19v5.24Z"/>
    <path class="cls-1" d="M466.36,359.76h-10.19v-5.24h10.19v5.24Z"/>
    <path class="cls-1" d="M475.13,359.76h-10.19v-5.24h10.19v5.24Z"/>
    <path class="cls-1" d="M482.44,340.3c2.19-2.33,4.82-3.49,7.91-3.49s5.73,1.16,7.91,3.49,3.28,5.13,3.28,8.41c0,1.16-.17,2.35-.5,3.56.31,1.19,1.09,1.9,2.35,2.14.88.07,2.06.11,3.53.11v5.24h-2.67c-2.21,0-4.02-.76-5.42-2.28l-.54-.39c-2.19,2.35-4.84,3.53-7.95,3.53s-5.99-1.27-8.2-3.81l.21.29-.57.39c-1.4,1.52-3.21,2.28-5.42,2.28h-2.67v-5.24c2.28,0,3.46-.04,3.53-.11,1.31-.28,2.1-1.05,2.39-2.28-.31-1.07-.46-2.21-.46-3.42,0-3.28,1.09-6.08,3.28-8.41ZM494.63,348.71c0-4.59-1.43-6.88-4.28-6.88s-4.28,2.29-4.28,6.88,1.43,6.88,4.28,6.88,4.28-2.29,4.28-6.88Z"/>
    <path class="cls-1" d="M530.63,336.7v5.38h-5.28l-2.35.04c-3.76.07-5.63,2.13-5.63,6.17v.25c0,3.99,1.85,5.99,5.56,5.99h17.68v5.24h-35.11v-5.24h7.99c-1.12-1.83-1.68-3.86-1.68-6.1,0-3.3,1.1-6.1,3.32-8.38,2.19-2.26,4.81-3.39,7.88-3.39l7.63.04Z"/>
    <path class="cls-1" d="M552.23,323.72v27.23c0,5.87-2.96,8.8-8.88,8.8h-4.14v-5.24h3.6c.9,0,1.62-.26,2.14-.77.52-.51.79-1.23.79-2.16v-27.88h6.49Z"/>
    <path class="cls-1" d="M561.46,359.76h-6.38v-36.14h6.38v36.14Z"/>
    <path class="cls-1" d="M606.09,359.76h-20.17c-2.21,0-4.25-.33-6.13-1-4.23-1.52-6.7-4.5-7.41-8.95v-9.52h6.31v6.17c0,1.02.12,1.93.36,2.71.74,2.59,2.52,4.24,5.35,4.96,1,.26,1.87.39,2.6.39h12.8v-17.61h6.31v22.85ZM584.7,327.79c2.3-.02,3.47,1.12,3.49,3.42.02,2.3-1.12,3.46-3.42,3.46s-3.35-1.14-3.35-3.42c.02-2.28,1.12-3.43,3.28-3.46ZM593.54,327.79c2.3-.02,3.47,1.12,3.49,3.42.02,2.3-1.12,3.46-3.42,3.46s-3.35-1.14-3.35-3.42c.02-2.28,1.12-3.43,3.28-3.46Z"/>
    <path class="cls-1" d="M615.39,354.52h6.49v5.24h-12.94v-36.04h6.45v30.8Z"/>
    <path class="cls-1" d="M630.65,359.76h-10.19v-5.24h10.19v5.24Z"/>
    <path class="cls-1" d="M639.41,359.76h-10.19v-5.24h10.19v5.24Z"/>
    <path class="cls-1" d="M648.18,359.76h-10.19v-5.24h10.19v5.24Z"/>
    <path class="cls-1" d="M656.95,359.76h-10.19v-5.24h10.19v5.24Z"/>
    <path class="cls-1" d="M665.72,359.76h-10.19v-5.24h10.19v5.24Z"/>
    <path class="cls-1" d="M674.48,359.76h-10.19v-5.24h10.19v5.24Z"/>
    <path class="cls-1" d="M683.25,359.76h-10.19v-5.24h10.19v5.24Z"/>
    <path class="cls-1" d="M692.02,359.76h-10.19v-5.24h10.19v5.24Z"/>
    <path class="cls-1" d="M700.79,359.76h-10.19v-5.24h10.19v5.24Z"/>
    <path class="cls-1" d="M709.56,359.76h-10.19v-5.24h10.19v5.24Z"/>
    <path class="cls-1" d="M718.32,359.76h-10.19v-5.24h10.19v5.24Z"/>
    <path class="cls-1" d="M727.09,359.76h-10.19v-5.24h10.19v5.24Z"/>
    <path class="cls-1" d="M733.69,340.3c2.19-2.33,4.82-3.49,7.91-3.49s5.73,1.16,7.91,3.49,3.28,5.13,3.28,8.41-1.09,6.08-3.28,8.41c-2.19,2.33-4.82,3.49-7.91,3.49-3.26,0-5.99-1.27-8.2-3.81l.21.29-.57.39c-1.4,1.52-3.21,2.28-5.42,2.28h-2.67v-5.24c1.5,0,2.67-.04,3.53-.11,1.31-.28,2.1-1.05,2.39-2.28-.31-1.07-.46-2.21-.46-3.42,0-3.28,1.09-6.08,3.28-8.41ZM745.88,348.71c0-4.59-1.43-6.88-4.28-6.88s-4.28,2.29-4.28,6.88,1.43,6.88,4.28,6.88,4.28-2.29,4.28-6.88Z"/>
    <path class="cls-1" d="M768.58,336.81c3.09.29,5.17,2.02,6.24,5.2.45,1.4.68,2.97.68,4.7v7.81h6.06v5.24h-25.91v-5.24h13.37v-8.91c0-1.19-.3-2.1-.91-2.75-.61-.64-1.49-.96-2.66-.96h-4.7v-5.1c4.82-.05,7.44-.05,7.84,0Z"/>
    <path class="cls-1" d="M786.69,336.73h3.85c2.45,0,4.34.08,5.67.25,4.44.67,7.43,3.1,8.95,7.31.64,1.81.96,4.85.96,9.12v1.11h6.45v5.24h-32.44v-5.24h20.6c.05-3.4-.02-5.45-.21-6.17-.71-2.87-2.38-4.67-4.99-5.38-.66-.19-1.56-.31-2.67-.36-.31,0-.7,0-1.16-.02s-1.07-.02-1.82-.04c-.75-.01-1.42-.02-2.01-.02-.67,0-1.06-.01-1.18-.04v-5.77ZM792.5,324.94c2.3-.02,3.47,1.12,3.49,3.42.02,2.31-1.12,3.46-3.42,3.46s-3.35-1.14-3.35-3.42c.02-2.28,1.12-3.43,3.28-3.46Z"/>
    <path class="cls-1" d="M824.15,323.72v27.23c0,5.87-2.96,8.8-8.88,8.8h-4.14v-5.24h3.6c.9,0,1.62-.26,2.14-.77.52-.51.79-1.23.79-2.16v-27.88h6.49Z"/>
  </g>
</svg>