<?xml version="1.0" encoding="UTF-8"?>
<svg id="Layer_1" data-name="Layer 1" xmlns="http://www.w3.org/2000/svg" viewBox="0 0 80 80">
  <defs>
    <style>
      .cls-1 {
        fill: #1e4076;
        fill-rule: evenodd;
      }
    </style>
  </defs>
  <path class="cls-1" d="M75.58,33.52c-.22-.23-.52-.36-.86-.36h-27.39c-.34,0-.65.13-.88.36s-.36.53-.36.87v41.12c0,.34.14.65.36.87.23.22.54.36.88.36h27.39c.34,0,.64-.14.87-.36.22-.22.36-.53.36-.87v-41.12c0-.34-.14-.65-.37-.87ZM54.73,73.48c0,.44-.18.84-.47,1.12-.29.29-.69.47-1.12.47h-3.53c-.44,0-.84-.18-1.12-.47-.29-.28-.47-.68-.47-1.12v-3.53c0-.44.18-.84.47-1.12.28-.29.68-.47,1.12-.47h3.53c.43,0,.82.18,1.11.47h.01c.29.28.47.68.47,1.12v3.53ZM54.73,63.83c0,.43-.18.83-.47,1.12h-.01c-.29.29-.68.47-1.12.47h-3.52c-.44,0-.84-.18-1.13-.47-.04-.04-.08-.08-.11-.13-.22-.28-.35-.62-.35-.99v-3.53c0-.44.18-.84.46-1.12.29-.29.69-.47,1.13-.47h3.52c.44,0,.83.18,1.12.47h.01c.29.28.47.68.47,1.12v3.53ZM54.73,54.18c0,.43-.18.83-.47,1.12h-.01c-.29.29-.68.47-1.12.47h-3.52c-.44,0-.84-.18-1.13-.47-.04-.04-.08-.08-.11-.13-.22-.28-.35-.62-.35-.99v-3.53c0-.44.18-.84.46-1.12.29-.29.69-.47,1.13-.47h3.52c.44,0,.83.18,1.12.47h.01c.29.28.47.68.47,1.12v3.53ZM64.38,73.48c0,.44-.18.84-.47,1.12-.29.29-.69.47-1.12.47h-3.53c-.44,0-.83-.18-1.12-.47h-.01c-.28-.28-.46-.68-.46-1.12v-3.53c0-.43.18-.83.46-1.12h.01c.29-.29.68-.47,1.12-.47h3.53c.43,0,.83.18,1.12.47.29.28.47.68.47,1.12v3.53ZM64.38,63.83c0,.43-.18.83-.47,1.12h0c-.28.29-.68.47-1.12.47h-3.52c-.44,0-.83-.18-1.12-.47h-.01c-.29-.29-.47-.69-.47-1.12v-3.53c0-.43.18-.83.47-1.12h.01c.29-.29.68-.47,1.12-.47h3.52c.44,0,.83.18,1.12.47h0c.29.28.47.68.47,1.12v3.53ZM64.38,54.18c0,.43-.18.83-.47,1.12h0c-.28.29-.68.47-1.12.47h-3.52c-.44,0-.83-.18-1.12-.47h-.01c-.29-.29-.47-.69-.47-1.12v-3.53c0-.43.18-.83.47-1.12h.01c.29-.29.68-.47,1.12-.47h3.52c.44,0,.83.18,1.12.47h0c.29.28.47.68.47,1.12v3.53ZM74.03,73.48c0,.44-.18.84-.47,1.12-.29.29-.68.47-1.12.47h-3.53c-.44,0-.84-.18-1.12-.47-.29-.28-.47-.68-.47-1.12v-3.53c0-.44.18-.84.47-1.12.28-.29.68-.47,1.12-.47h3.53c.43,0,.83.18,1.12.47.29.28.47.68.47,1.12v3.53ZM74.03,63.83c0,.43-.18.83-.47,1.12h-.01c-.28.29-.68.47-1.12.47h-3.52c-.44,0-.84-.18-1.13-.47-.04-.04-.08-.08-.11-.13-.22-.28-.35-.62-.35-.99v-3.53c0-.44.18-.84.46-1.12.29-.29.69-.47,1.13-.47h3.52c.44,0,.83.18,1.12.47h.01c.29.28.47.68.47,1.12v3.53ZM74.03,54.18c0,.43-.18.83-.47,1.12h-.01c-.28.29-.68.47-1.12.47h-3.52c-.44,0-.84-.18-1.13-.47-.04-.04-.08-.08-.11-.13-.22-.28-.35-.62-.35-.99v-3.53c0-.44.18-.84.46-1.12s.69-.47,1.13-.47h3.52c.44,0,.83.18,1.12.47h.01c.29.28.47.68.47,1.12v3.53ZM74.03,44.74c0,.52-.22,1-.57,1.35h0s-.01.01-.01.01c-.35.35-.82.56-1.34.56h-22.17c-.53,0-1.01-.22-1.36-.56-.35-.35-.56-.83-.56-1.36v-7.76c0-.53.21-1.01.56-1.36h.01c.34-.35.82-.56,1.35-.56h22.17c.53,0,1.01.21,1.35.56.35.35.57.83.57,1.36v7.76Z"/>
  <path class="cls-1" d="M38.28,51.33c-.22,1.14-.58,2.24-1.23,3.22-.61.92-1.43,1.61-2.42,2.08-.95.44-1.94.65-2.97.73-1.2.1-2.39.03-3.59.05-.13,0-.29.05-.37-.03-.08-.07-.03-.24-.03-.36v-5.67c0-.12.03-.16.15-.16,1.72,0,3.44.01,5.16.01h5.18c.1,0,.14,0,.12.13Z"/>
  <path class="cls-1" d="M38.28,44.82c.03.12,0,.15-.13.15h-5.17c-1.71,0-3.43,0-5.14.01-.13,0-.17-.02-.17-.16v-5.9c0-.12.03-.16.16-.16,1.2,0,2.4-.03,3.6.02,1.17.04,2.3.24,3.36.76,1.03.51,1.83,1.26,2.42,2.25.56.94.87,1.97,1.07,3.03Z"/>
  <path class="cls-1" d="M38.53,47.19c0,.59,0,1.18,0,1.78,0,.12-.04.15-.17.15-1.75-.01-3.51,0-5.27,0h-5.23q-.19,0-.19-.19c0-.57.01-1.14,0-1.71,0-.13.03-.17.17-.17h10.54c.12,0,.15.03.15.14Z"/>
  <path class="cls-1" d="M43.64,47.05v2.09c-.11-.02-.21-.03-.32-.02-.34.01-.68,0-1.02,0-.11,0-.16-.02-.15-.15.04-.59.04-1.19,0-1.78-.01-.12.03-.14.14-.14h1.35Z"/>
  <path class="cls-1" d="M52.7,30.44c-.08.17-.24.27-.42.27h-4.96c-1.01,0-1.93.41-2.6,1.08-.66.66-1.08,1.58-1.08,2.6v10.6c-.08-.01-.16-.02-.25-.02h-1.43c-.1.01-.14-.03-.16-.12-.18-.75-.46-1.47-.81-2.15-.49-.93-1.12-1.76-1.92-2.45-1.07-.93-2.3-1.55-3.64-1.95-1.31-.38-2.64-.57-4-.57-2.53-.01-5.07-.01-7.6-.01h-.17s-.08-.01-.09.03c-.01.03.03.04.04.07.15.18.28.37.38.58.39.81.54,1.68.56,2.56.02,1.3.01,2.59.01,3.89,0,.1-.03.12-.13.12h-1.74c-.44.01-.8-.16-1.1-.46-.04-.03-.07-.09-.11-.08-.06.02-.03.08-.03.13v.38c0,.47.12.9.39,1.29.36.52.84.82,1.49.82.36,0,.72.01,1.08,0,.12,0,.15.03.15.15v1.78c0,.12-.03.14-.14.14h-1.78c-.17,0-.34-.03-.5-.1-.23-.08-.42-.24-.6-.4-.02-.02-.03-.05-.07-.04-.03,0-.02.03-.02.06-.01.5-.01,1,.23,1.46.35.68.88,1.09,1.68,1.09.35,0,.7.01,1.05,0,.12,0,.15.04.15.16v3.65c0,.33-.02.66-.06.98-.11.88-.3,1.72-.91,2.4-.04.04-.01.06.03.06.03.01.06.01.1,0h4.2-.01s2.97.01,2.97.01c.7,0,1.4-.02,2.09-.1,1.54-.15,3.02-.51,4.4-1.23,1.13-.58,2.1-1.37,2.87-2.39s1.26-2.16,1.57-3.39c.03-.12.07-.15.19-.15.55.01,1.09,0,1.64.01v22.84c0,.32-.18.59-.49.71-1.48.58-3.02,1.03-4.61,1.36-1.96.42-4.02.63-6.14.63-7.85,0-14.94-3-20.08-7.85-5.11-4.83-8.27-11.51-8.27-18.87,0-5.96,2.09-11.76,5.61-16.84,3.73-5.4,9.06-9.99,15.19-13.12.27-.14.51-.31.72-.51.13-.11.29-.15.45-.1.87.27,1.82.47,2.81.62,1.13.17,2.33.26,3.57.26s2.44-.09,3.57-.26c.99-.15,1.94-.35,2.81-.62.16-.05.32-.01.44.1.22.2.46.37.73.51,2.96,1.51,5.74,3.37,8.25,5.5,1.59,1.36,3.08,2.83,4.43,4.39.12.14.15.32.07.49Z"/>
  <path class="cls-1" d="M26.34,15.93h0c.12.28.2.57.24.85.02.18.15.33.33.38.7.2,1.46.36,2.29.48,1,.15,2.08.23,3.21.23s2.21-.08,3.22-.23c.82-.12,1.59-.28,2.28-.48.18-.05.31-.2.33-.38.04-.29.12-.58.24-.85l3.99-9.23c.23-.53.28-1.1.17-1.62-.11-.53-.39-1.01-.81-1.39-.28-.25-.62-.39-.97-.42-.35-.03-.71.05-1.02.26l-1.05.68c-.69.44-1.44.66-2.2.66s-1.52-.22-2.2-.66l-1.07-.68c-.27-.18-.58-.27-.89-.27s-.61.09-.89.26l-1.07.68c-.69.44-1.44.66-2.2.66s-1.51-.22-2.2-.66l-1.05-.68c-.32-.2-.68-.29-1.03-.26-.35.03-.68.17-.96.42-.42.38-.7.86-.81,1.39-.11.53-.06,1.09.16,1.62l3.99,9.23Z"/>
  <path class="cls-1" d="M70.96,37.51h-19.88c-.34,0-.61.27-.61.61v5.48c0,.34.28.61.61.61h19.88c.34,0,.61-.28.61-.61v-5.48c0-.34-.28-.61-.61-.61Z"/>
  <path class="cls-1" d="M52.12,51.51h-1.5c-.09,0-.16.07-.16.16v1.5c0,.09.07.16.16.16h1.5c.09,0,.16-.07.16-.16v-1.5c0-.09-.07-.16-.16-.16Z"/>
  <path class="cls-1" d="M61.77,51.51h-1.5c-.09,0-.16.07-.16.16v1.5c0,.09.07.16.16.16h1.5c.09,0,.16-.07.16-.16v-1.5c0-.09-.07-.16-.16-.16Z"/>
  <path class="cls-1" d="M71.42,51.51h-1.5c-.09,0-.16.07-.16.16v1.5c0,.09.07.16.16.16h1.5c.09,0,.16-.07.16-.16v-1.5c0-.09-.07-.16-.16-.16Z"/>
  <path class="cls-1" d="M71.42,61.16h-1.5c-.09,0-.16.07-.16.16v1.5c0,.09.07.16.16.16h1.5c.09,0,.16-.07.16-.16v-1.5c0-.09-.07-.16-.16-.16Z"/>
  <path class="cls-1" d="M61.77,61.16h-1.5c-.09,0-.16.07-.16.16v1.5c0,.09.07.16.16.16h1.5c.09,0,.16-.07.16-.16v-1.5c0-.09-.07-.16-.16-.16Z"/>
  <path class="cls-1" d="M52.12,61.16h-1.5c-.09,0-.16.07-.16.16v1.5c0,.09.07.16.16.16h1.5c.09,0,.16-.07.16-.16v-1.5c0-.09-.07-.16-.16-.16Z"/>
  <path class="cls-1" d="M52.12,70.81h-1.5c-.09,0-.16.07-.16.16v1.5c0,.09.07.16.16.16h1.5c.09,0,.16-.07.16-.16v-1.5c0-.09-.07-.16-.16-.16Z"/>
  <path class="cls-1" d="M61.77,70.81h-1.5c-.09,0-.16.07-.16.16v1.5c0,.09.07.16.16.16h1.5c.09,0,.16-.07.16-.16v-1.5c0-.09-.07-.16-.16-.16Z"/>
  <path class="cls-1" d="M71.42,70.81h-1.5c-.09,0-.16.07-.16.16v1.5c0,.09.07.16.16.16h1.5c.09,0,.16-.07.16-.16v-1.5c0-.09-.07-.16-.16-.16Z"/>
</svg>