<?xml version="1.0" encoding="UTF-8"?>
<svg id="Layer_1" data-name="Layer 1" xmlns="http://www.w3.org/2000/svg" viewBox="0 0 80 80">
  <defs>
    <style>
      .cls-1 {
        fill: #1e4076;
      }

      .cls-2 {
        fill: #179d5a;
      }
    </style>
  </defs>
  <g>
    <path class="cls-1" d="M22.49,39.28v-1.28c-3.39-2.23-5.43-6.02-5.43-10.07v-7.24c0-2,1.62-3.62,3.62-3.62,1.21.02,2.32-.68,2.81-1.8.79-1.84,2.92-2.68,4.76-1.89.38.17.74.4,1.04.68,2.06,1.93,4.78,3.01,7.61,3h.69c2,0,3.62,1.62,3.62,3.62v7.24c0,4.06-2.04,7.84-5.43,10.07v1.28l6.78,1.64c1.46-1.56,2.27-3.61,2.27-5.75v-16.9c0-8.67-7.03-15.7-15.7-15.7s-15.7,7.03-15.7,15.7v16.9c0,2.14.81,4.19,2.27,5.75l6.78-1.64Z"/>
    <path class="cls-1" d="M33.36,43.02v-3.8c-2.72,1.04-5.73,1.04-8.45,0v3.8c0,2.33,1.89,4.23,4.23,4.23s4.23-1.89,4.23-4.23Z"/>
    <path class="cls-1" d="M38.79,27.93v-7.24c0-.67-.54-1.21-1.21-1.21h-.69c-3.44,0-6.75-1.31-9.26-3.66-.49-.46-1.25-.43-1.71.06-.09.1-.17.22-.23.34-.85,1.98-2.8,3.26-4.95,3.26h-.08c-.67,0-1.21.54-1.21,1.21h0v7.24c0,5.33,4.32,9.66,9.66,9.66s9.66-4.32,9.66-9.66h0Z"/>
    <path class="cls-1" d="M10.79,62.94H3.78v8.45c0,.67.54,1.21,1.21,1.21h6.39c-.96-3.13-1.16-6.44-.58-9.66Z"/>
    <path class="cls-1" d="M22.49,43.02v-1.26l-10.41,2.52c-4.88,1.17-8.32,5.54-8.31,10.56v5.68h7.59c.17-.56.35-1.11.57-1.66.24-.62.94-.94,1.56-.7s.94.94.7,1.56c0,.01,0,.02-.01.04-1.64,4.1-1.74,8.67-.27,12.83h14.01v-23.06c-3.14-.58-5.43-3.32-5.43-6.52Z"/>
    <path class="cls-1" d="M54.48,54.6c-.1-4.92-3.51-9.16-8.3-10.32l-10.41-2.52v1.26c0,3.2-2.29,5.94-5.43,6.52v23.06h14.01c1.47-4.17,1.38-8.73-.26-12.83-.26-.62.03-1.32.65-1.58.62-.26,1.32.03,1.58.65,0,.01,0,.02.01.04.22.55.4,1.1.57,1.66h3.61c.81-2.28,2.18-4.31,3.97-5.93Z"/>
    <path class="cls-1" d="M49.88,62.94h-2.4c.58,3.22.38,6.53-.58,9.66h4.72c-1.72-2.91-2.33-6.34-1.74-9.66Z"/>
    <path class="cls-1" d="M76.22,65.36c0,6.67-5.4,12.07-12.07,12.07s-12.08-5.4-12.08-12.07,5.41-12.08,12.08-12.08,12.07,5.41,12.07,12.08Z"/>
  </g>
  <path class="cls-2" d="M56.62,64.14c.3.01.59.09.87.2.93.35,1.71.92,2.46,1.55.55.47,1.06.98,1.56,1.5.1.11.13.09.2-.02,1.02-1.54,2.15-2.99,3.45-4.3,1.76-1.79,3.74-3.3,6.02-4.38.5-.24,1-.45,1.53-.61.15-.04.3-.09.41.06.09.11.06.31-.06.46-.07.09-.16.17-.25.23-2.03,1.49-3.8,3.26-5.37,5.23-1.32,1.64-2.45,3.41-3.46,5.25-.5.9-.98,1.82-1.42,2.75-.22.47-.6.68-1.03.57-.22-.05-.38-.18-.52-.35-.48-.61-.96-1.23-1.47-1.82-.96-1.12-1.98-2.16-3.18-3.03-.26-.18-.52-.35-.8-.5-.29-.15-.42-.39-.42-.71,0-.68.25-1.26.72-1.75.21-.22.47-.35.78-.33Z"/>
</svg>